<svg viewBox="0 0 15 15" xmlns="http://www.w3.org/2000/svg">
  <style>
    path {
      fill: #fff;
      stroke: #000;
      stroke-width: 0.1;
      transform-origin: 50% 50%;
      animation-name: logo-rotate;
      animation-iteration-count: infinite;
      animation-duration: 10s;
    }

    @keyframes logo-rotate {
      from {
        transform: rotate(0deg);
      }

      4% {
        transform: rotate(-15deg);
      }

      8% {
        transform: rotate(250deg);
      }

      12% {
        transform: rotate(160deg);
      }

      16% {
        transform: rotate(180deg);
      }

      to {
        transform: rotate(180deg);
      }
    }
  </style>
  <path d="
        M1,9v-2a1 1 180 1 1 2 0 1 1 180 1 1 2 0v2h-1v-2a1 1 180 1 1 -2 0v2h-1z
        M6,11l0,-1a1 1 90 0 0 1,-1v-1h-1v-1h1v-1a2 2 90 0 1 2-2v1a 1 1 90 0 0-1,1v1h1v1h-1v1a 2 2 90 0 1-2 2Z
        M10,6h1v2a1 1 180 1 1 2 0 v-2h1v2a1 1 180 1 1 -2 0 1 1 180 1 1 -2 0v-2z" />
</svg>
